<svg width="20" height="21" viewBox="0 0 20 21" fill="none" xmlns="http://www.w3.org/2000/svg">
<g clip-path="url(#clip0_0_240)">
<path d="M10.0001 2.95435C4.47732 2.95435 0 7.47421 0 13.0498C0 16.073 1.30468 18.0447 1.30468 18.0447L18.6913 18.0456C18.6913 18.0456 19.9998 15.8907 19.9998 13.0496C19.9998 7.47421 15.5225 2.95435 10.0001 2.95435ZM17.9579 16.8157L2.07395 16.8088C2.07395 16.8088 1.22756 15.2059 1.22756 13.0179C1.22756 8.13116 5.1701 4.16934 10.0336 4.16934C14.897 4.16934 18.8397 8.13095 18.8397 13.0179C18.8399 15.2306 17.9579 16.8157 17.9579 16.8157Z" fill="#C77760"/>
<path d="M12.8261 5.63518L12.7006 5.63497L10.0332 10.8619L7.26981 5.59033L3.48632 15.1135H2.50854V15.8784H7.86515V15.1135H6.8023L7.86515 12.1372L10.0332 15.8784L12.1164 12.1372L13.179 15.1135H12.1164V15.8784H17.4302V15.1135H16.5097L12.8261 5.63518Z" fill="#C77760"/>
</g>
<defs>
<clipPath id="clip0_0_240">
<rect width="19.9998" height="20" fill="white" transform="translate(0 0.5)"/>
</clipPath>
</defs>
</svg>
