<svg width="21" height="21" viewBox="0 0 21 21" fill="none" xmlns="http://www.w3.org/2000/svg">
<g clip-path="url(#clip0_0_250)">
<path d="M10.5026 0H10.4974C4.70794 0 0 4.70925 0 10.5C0 12.7969 0.74025 14.9257 1.99894 16.6543L0.690375 20.5551L4.72631 19.2649C6.38663 20.3647 8.36719 21 10.5026 21C16.2921 21 21 16.2894 21 10.5C21 4.71056 16.2921 0 10.5026 0Z" fill="#4CAF50"/>
<path d="M16.6123 14.8274C16.359 15.5427 15.3537 16.1359 14.5517 16.3092C14.0031 16.426 13.2865 16.5192 10.8741 15.5191C7.78841 14.2407 5.80129 11.1051 5.64641 10.9017C5.4981 10.6982 4.39954 9.24137 4.39954 7.73462C4.39954 6.22787 5.16472 5.49418 5.47316 5.17918C5.72647 4.92062 6.14516 4.80249 6.54679 4.80249C6.67672 4.80249 6.79354 4.80905 6.89854 4.8143C7.20697 4.82743 7.36185 4.8458 7.56529 5.33274C7.8186 5.94305 8.43547 7.4498 8.50897 7.60468C8.58379 7.75955 8.6586 7.96955 8.5536 8.17299C8.45516 8.38299 8.36854 8.47618 8.21366 8.65468C8.05879 8.83318 7.91179 8.96968 7.75691 9.1613C7.61516 9.32799 7.45504 9.50649 7.63354 9.81493C7.81204 10.1168 8.42891 11.1235 9.33716 11.932C10.5092 12.9754 11.4595 13.3088 11.7994 13.4506C12.0527 13.5556 12.3546 13.5306 12.5397 13.3337C12.7746 13.0804 13.0647 12.6604 13.36 12.247C13.57 11.9504 13.8351 11.9136 14.1133 12.0186C14.3968 12.1171 15.897 12.8586 16.2055 13.0122C16.5139 13.1671 16.7173 13.2406 16.7922 13.3705C16.8657 13.5004 16.8657 14.1107 16.6123 14.8274Z" fill="#FAFAFA"/>
</g>
<defs>
<clipPath id="clip0_0_250">
<rect width="21" height="21" fill="white"/>
</clipPath>
</defs>
</svg>
